<?xml version="1.0" encoding="UTF-8"?>
<svg width="12px" height="152px" viewBox="0 0 12 152" version="1.1" xmlns="http://www.w3.org/2000/svg" xmlns:xlink="http://www.w3.org/1999/xlink">
    <!-- Generator: sketchtool 55.1 (78136) - https://sketchapp.com -->
    <title>0F2A079A-D957-455B-A1EE-79825AD27D1A</title>
    <desc>Created with sketchtool.</desc>
    <defs>
        <path d="M0.000923076913,151.197227 L0.000923076913,104.120305 L0.924,104.120305 L0.924,151.197227 L0.000923076913,151.197227 Z M3.34255395,145.057476 L8.65947724,147.258091 L8.65947724,148.999014 L3.34255395,151.19686 L3.34255395,149.563937 L7.0745541,148.106399 L3.34255395,146.649784 L3.34255395,145.057476 Z M8.65966167,140.958646 L8.65966167,144.488492 L7.71720009,144.488492 L7.71720009,143.5008 L4.28519996,143.5008 L4.28519996,144.488492 L3.34273838,144.488492 L3.34273838,140.958646 L4.28519996,140.958646 L4.28519996,141.946338 L7.71720009,141.946338 L7.71720009,140.958646 L8.65966167,140.958646 Z M8.35504623,134.382638 C8.44920008,134.6531 8.5405847,135.012177 8.6328924,135.456177 C8.72427701,135.902023 8.76950778,136.346023 8.76950778,136.787254 C8.76950778,137.813715 8.52489239,138.616792 8.0319693,139.197408 C7.54181544,139.778023 6.86243081,140.067869 5.99658463,140.067869 C5.16950768,140.067869 4.50304612,139.776177 3.99719995,139.190023 C3.49227686,138.603869 3.23935378,137.786946 3.23935378,136.740177 C3.23935378,136.343254 3.27073839,135.964792 3.33350762,135.605715 C3.39627686,135.246638 3.52089225,134.848792 3.7110461,134.408485 L4.9562769,134.408485 L4.9562769,134.580177 C4.90643075,134.656792 4.83535382,134.768485 4.7439692,134.913408 C4.65258459,135.059254 4.57412305,135.199562 4.50950766,135.335254 C4.43381535,135.490331 4.36735381,135.6731 4.31473842,135.883561 C4.25750765,136.094023 4.2316615,136.314638 4.2316615,136.5491 C4.2316615,136.8251 4.26673842,137.075254 4.33873842,137.298638 C4.41073843,137.522023 4.51966151,137.724177 4.66735382,137.901408 C4.81135382,138.071254 4.9922769,138.2051 5.21196922,138.303869 C5.43166153,138.402638 5.68735385,138.452484 5.9735077,138.452484 C6.56335387,138.452484 7.01381543,138.276177 7.32581543,137.921715 C7.63596929,137.568177 7.79289237,137.046638 7.79289237,136.355254 C7.79289237,136.2971 7.79104622,136.229715 7.78735391,136.158638 C7.78735391,136.087561 7.7836616,136.0211 7.77812314,135.962946 L6.73412311,135.962946 L6.73412311,137.163869 L5.73166154,137.163869 L5.73166154,134.382638 L8.35504623,134.382638 Z M8.65966167,129.756465 L8.65966167,133.286311 L7.71720009,133.286311 L7.71720009,132.298619 L4.28519996,132.298619 L4.28519996,133.286311 L3.34273838,133.286311 L3.34273838,129.756465 L4.28519996,129.756465 L4.28519996,130.744157 L7.71720009,130.744157 L7.71720009,129.756465 L8.65966167,129.756465 Z M8.65966167,124.162987 L8.65966167,128.514372 L3.34273838,128.514372 L3.34273838,126.95991 L7.63227701,126.95991 L7.63227701,124.162987 L8.65966167,124.162987 Z M8.65993853,117.683075 L8.65993853,119.290152 L7.58363081,119.708306 L7.58363081,121.939383 L8.65993853,122.360306 L8.65993853,123.924921 L3.34209223,121.699383 L3.34209223,119.910459 L8.65993853,117.683075 Z M6.6097845,120.083073 L4.70455383,120.825227 L6.6097845,121.564612 L6.6097845,120.083073 Z M6.00563098,111.1464 C6.50132331,111.1464 6.94532333,111.271938 7.33670796,111.528554 C7.72716951,111.786092 8.02901568,112.111015 8.23947723,112.5024 C8.39455416,112.795015 8.50624647,113.118092 8.56809262,113.467938 C8.6290157,113.818708 8.65947724,114.235015 8.65947724,114.716862 L8.65947724,116.839938 L3.34255395,116.839938 L3.34255395,114.655015 C3.34255395,114.163938 3.37855396,113.739323 3.45147704,113.383015 C3.52255396,113.027631 3.62686166,112.727631 3.75978474,112.484861 C3.98409244,112.069477 4.28501553,111.740861 4.66532324,111.502708 C5.04563095,111.264554 5.49240019,111.1464 6.00563098,111.1464 Z M5.99640006,112.752552 C5.64563084,112.752552 5.34655392,112.824552 5.09640007,112.967629 C4.84993854,113.112552 4.65424624,113.342398 4.51393854,113.654398 C4.4437847,113.81409 4.39763085,113.976552 4.37270778,114.142706 C4.3477847,114.308859 4.3357847,114.559013 4.3357847,114.89409 L4.3357847,115.286398 L7.66440004,115.286398 L7.66440004,114.89409 C7.66440004,114.525782 7.64870773,114.251629 7.61916927,114.079936 C7.58870773,113.907321 7.53516927,113.738398 7.45763081,113.573167 C7.31455389,113.289782 7.12347697,113.083013 6.88347697,112.95009 C6.64440005,112.81809 6.34809236,112.752552 5.99640006,112.752552 Z M6.00221535,104.120678 C6.85144613,104.120678 7.52344614,104.394832 8.02190768,104.945909 C8.52221538,105.496063 8.7696,106.257601 8.7696,107.230524 C8.7696,108.200678 8.52221538,108.959447 8.02190768,109.508678 C7.52344614,110.060678 6.85144613,110.334832 6.00221535,110.334832 C5.14744611,110.334832 4.47175379,110.060678 3.97606148,109.508678 C3.47944609,108.959447 3.23206147,108.200678 3.23206147,107.230524 C3.23206147,106.264063 3.47944609,105.504371 3.97606148,104.950525 C4.47175379,104.396678 5.14744611,104.120678 6.00221535,104.120678 Z M7.34898443,106.180986 C7.18836904,106.028678 6.99544597,105.917909 6.77575366,105.844986 C6.55606136,105.772063 6.29575366,105.736063 5.9985229,105.736063 C5.68098444,105.736063 5.40959982,105.777601 5.18621521,105.861601 C4.96190752,105.944678 4.78098444,106.053601 4.64252291,106.189294 C4.49944598,106.326832 4.39513829,106.485601 4.33236906,106.665601 C4.2668306,106.844678 4.23544599,107.030217 4.23544599,107.224986 C4.23544599,107.423448 4.26590752,107.608063 4.32775368,107.781601 C4.38959983,107.956986 4.49206137,108.115755 4.63513829,108.261601 C4.76898444,108.396371 4.95175367,108.508063 5.18713829,108.59114 C5.42159982,108.676986 5.69390751,108.720371 6.0022152,108.720371 C6.31790751,108.720371 6.5902152,108.677909 6.81175366,108.596678 C7.03329212,108.513601 7.21513827,108.405601 7.3582152,108.271755 C7.49667673,108.13514 7.59913827,107.978217 7.66836904,107.797294 C7.73298442,107.615448 7.76713827,107.426217 7.76713827,107.224986 C7.76713827,107.026525 7.73298442,106.836371 7.66652289,106.655448 C7.59821519,106.473601 7.49113827,106.315755 7.34898443,106.180986 Z M11.0769235,151.197227 L11.0769235,104.120305 L12.0000004,104.120305 L12.0000004,151.197227 L11.0769235,151.197227 Z M3.19652292,93.1182442 C3.36636907,93.1182442 3.53344598,93.1579365 3.7005229,93.236398 C3.86667674,93.3157827 4.00698442,93.4265519 4.12236903,93.5687057 C4.24698441,93.7247057 4.34483056,93.9065519 4.4149844,94.1151673 C4.48513824,94.3228596 4.52113824,94.5730134 4.52113824,94.8665519 C4.52113824,95.1794749 4.49067671,95.4619365 4.43252286,95.7139365 C4.37344594,95.9640903 4.28759979,96.2188596 4.17221518,96.4791672 L3.44575368,96.4791672 L3.44575368,96.4376288 C3.6285229,96.2170134 3.77067674,95.9622442 3.86944597,95.6742442 C3.97006135,95.384398 4.0199075,95.1130134 4.0199075,94.8600903 C4.0199075,94.5010134 3.95159981,94.2213211 3.81775366,94.0219365 C3.68206136,93.8216288 3.50298445,93.7210134 3.27867676,93.7210134 C3.08483062,93.7210134 2.94267678,93.7680903 2.85036909,93.8631673 C2.75806141,93.9573211 2.68698449,94.1013211 2.63713833,94.2942442 C2.59744603,94.4419365 2.56513834,94.5997826 2.54021526,94.7705519 C2.51436911,94.9413211 2.4829845,95.1222442 2.44329219,95.3133211 C2.36113835,95.7000903 2.22083066,95.9862442 2.02329221,96.1727057 C1.82483068,96.3591672 1.56544608,96.452398 1.24790763,96.452398 C0.882369188,96.452398 0.58329228,96.2982442 0.349753829,95.9899365 C0.116215379,95.6807057 -9.23077101e-05,95.2902442 -9.23077101e-05,94.8157826 C-9.23077101e-05,94.5093211 0.0285230755,94.2287057 0.0875999957,93.9730134 C0.145753839,93.716398 0.217753836,93.4902442 0.304523062,93.2936288 L0.989446106,93.2936288 L0.989446106,93.3342442 C0.849138421,93.500398 0.732830734,93.7182442 0.639599969,93.9887057 C0.547292281,94.2591673 0.501138437,94.5360903 0.501138437,94.819475 C0.501138437,95.1296288 0.564830742,95.3779365 0.694061505,95.5662442 C0.823292268,95.7545519 0.988523029,95.8496288 1.19252302,95.8496288 C1.37344609,95.8496288 1.516523,95.8025519 1.61990761,95.7093211 C1.72329222,95.6151673 1.80267684,95.4499365 1.85713837,95.2145519 C1.88483068,95.0890134 1.91713837,94.9108596 1.95683067,94.6810134 C1.9955999,94.4511673 2.03621529,94.255475 2.07683067,94.0957826 C2.16267682,93.7717827 2.29283066,93.5271673 2.46636911,93.3647057 C2.63990756,93.200398 2.88359986,93.1182442 3.19652292,93.1182442 Z M2.68901532,88.9472284 C3.0056307,88.9472284 3.28163069,88.9823054 3.51609223,89.0506131 C3.75147684,89.1198438 3.94809221,89.2343054 4.10409221,89.3921515 C4.25270759,89.5435361 4.36163067,89.7179977 4.42993836,89.9192284 C4.49824605,90.1204592 4.53239989,90.3539977 4.53239989,90.62169 C4.53239989,90.8949207 4.49547682,91.1330746 4.42347682,91.3361515 C4.35147682,91.5392284 4.24532298,91.7099976 4.10409221,91.8484592 C3.94347683,92.0063053 3.75055376,92.1207669 3.52439992,92.1899976 C3.297323,92.2592284 3.01855378,92.2933822 2.68901532,92.2933822 L0.0794769251,92.2933822 L0.0794769251,91.7136899 L2.71855378,91.7136899 C2.95486147,91.7136899 3.141323,91.6970746 3.27886146,91.6647669 C3.41455377,91.6333823 3.53916915,91.5798438 3.64993838,91.5032284 C3.77732299,91.4173823 3.87239991,91.3010746 3.93793837,91.1533823 C4.00163068,91.00569 4.03393837,90.8284592 4.03393837,90.62169 C4.03393837,90.4130746 4.00255375,90.2358438 3.93886145,90.0890746 C3.87516914,89.9423054 3.77916914,89.8250746 3.64993838,89.7373823 C3.53916915,89.66169 3.41086146,89.6072284 3.26778454,89.5758438 C3.12470762,89.5435361 2.9456307,89.5269207 2.73332301,89.5269207 L0.0794769251,89.5269207 L0.0794769251,88.9472284 L2.68901532,88.9472284 Z M1.39689228,84.9784597 C1.59073843,84.9784597 1.76981535,85.0116905 1.93412304,85.0790751 C2.0993538,85.1455366 2.24243072,85.2406136 2.36427688,85.3615366 C2.51381533,85.5119982 2.62643072,85.6892289 2.70212302,85.894152 C2.77689225,86.0990751 2.81566148,86.3575366 2.81566148,86.6704597 L2.81566148,87.250152 L4.44119991,87.250152 L4.44119991,87.8298443 L0.0796615368,87.8298443 L0.0796615368,86.6464597 C0.0796615368,86.3843059 0.100892306,86.1636905 0.145199997,85.9818443 C0.188584611,85.7999982 0.257815379,85.6384597 0.351969224,85.4990751 C0.462738452,85.3329213 0.601199988,85.2046136 0.767353831,85.114152 C0.932584596,85.0227674 1.14304613,84.9784597 1.39689228,84.9784597 Z M1.41166153,85.5803063 C1.26119999,85.5803063 1.13012306,85.6070755 1.01935383,85.6596909 C0.907661522,85.7132293 0.817199983,85.7916909 0.747046137,85.8996909 C0.686123059,85.9929216 0.642738444,86.0999986 0.61689229,86.2199986 C0.590123059,86.3399986 0.577199982,86.4923063 0.577199982,86.6759986 L0.577199982,87.2501524 L2.31996922,87.2501524 L2.31996922,86.7599986 C2.31996922,86.525537 2.29873845,86.3353832 2.25719999,86.189537 C2.21473845,86.0436909 2.14827691,85.924614 2.05596922,85.8323063 C1.96273845,85.7409217 1.86396922,85.6763063 1.7605846,85.637537 C1.65719999,85.5996909 1.5408923,85.5803063 1.41166153,85.5803063 Z M4.44138446,81.3840924 L4.44138446,84.2557847 L0.0789230765,84.2557847 L0.0789230765,81.3840924 L0.594923058,81.3840924 L0.594923058,83.6760924 L1.79030763,83.6760924 L1.79030763,81.3840924 L2.30630761,81.3840924 L2.30630761,83.6760924 L3.92538448,83.6760924 L3.92538448,81.3840924 L4.44138446,81.3840924 Z M4.44092299,76.8460629 L4.44092299,77.5983706 L2.70738456,79.055909 L2.70738456,79.8737552 L4.44092299,79.8737552 L4.44092299,80.4525244 L0.0793846159,80.4525244 L0.0793846159,79.2312936 C0.0793846159,78.9682167 0.0950769233,78.7494475 0.130153846,78.5731398 C0.164307691,78.3977552 0.225230767,78.2389859 0.31384615,78.0996013 C0.412615378,77.9408321 0.538153837,77.8171398 0.68953845,77.7285244 C0.840923062,77.639909 1.03292306,77.5956013 1.26553844,77.5956013 C1.58030766,77.5956013 1.84338458,77.6749859 2.05569227,77.8328321 C2.26707688,77.9897552 2.42676918,78.2085244 2.5338461,78.4854475 L4.44092299,76.8460629 Z M1.30615385,78.2011349 C1.18153847,78.2011349 1.07076923,78.2232887 0.973846153,78.2666733 C0.876923074,78.310981 0.795692303,78.3839041 0.729230763,78.4854426 C0.671999993,78.5685195 0.633230761,78.6691349 0.610153838,78.7835964 C0.587999991,78.898981 0.576923068,79.0346733 0.576923068,79.1906733 L0.576923068,79.8737503 L2.22369233,79.8737503 L2.22369233,79.2875964 C2.22369233,79.1048272 2.20800003,78.9442118 2.17476926,78.8066733 C2.14246156,78.670981 2.08338464,78.5546733 1.99476925,78.4586733 C1.9126154,78.3719041 1.81846156,78.3063656 1.71138463,78.2639041 C1.60523078,78.2223656 1.47046155,78.2011349 1.30615385,78.2011349 Z M4.44138446,74.861263 L4.44138446,76.5818783 L3.9964614,76.5818783 L3.9964614,76.0114168 L0.524769214,76.0114168 L0.524769214,76.5818783 L0.0789230765,76.5818783 L0.0789230765,74.861263 L0.524769214,74.861263 L0.524769214,75.4317245 L3.9964614,75.4317245 L3.9964614,74.861263 L4.44138446,74.861263 Z M4.44138446,70.5668271 L4.44138446,71.2840579 L0.538615368,73.3517502 L4.44138446,73.3517502 L4.44138446,73.8935964 L0.0789230765,73.8935964 L0.0789230765,72.9945195 L3.64199987,71.1086733 L0.0789230765,71.1086733 L0.0789230765,70.5668271 L4.44138446,70.5668271 Z M0.594923058,66.2696306 L0.594923058,67.8268613 L4.44138446,67.8268613 L4.44138446,68.4056305 L0.594923058,68.4056305 L0.594923058,69.9637842 L0.0789230765,69.9637842 L0.0789230765,66.2696306 L0.594923058,66.2696306 Z M4.44138446,62.8116909 L4.44138446,65.6833832 L0.0789230765,65.6833832 L0.0789230765,62.8116909 L0.594923058,62.8116909 L0.594923058,65.1036909 L1.79030763,65.1036909 L1.79030763,62.8116909 L2.30630761,62.8116909 L2.30630761,65.1036909 L3.92538448,65.1036909 L3.92538448,62.8116909 L4.44138446,62.8116909 Z M4.44138446,58.6623696 L4.44138446,59.3796004 L0.538615368,61.4472927 L4.44138446,61.4472927 L4.44138446,61.9891389 L0.0789230765,61.9891389 L0.0789230765,61.090062 L3.64199987,59.2042158 L0.0789230765,59.2042158 L0.0789230765,58.6623696 L4.44138446,58.6623696 Z M2.26467688,53.7912008 C2.66067687,53.7912008 3.02067686,53.8779701 3.3428307,54.0505854 C3.66498454,54.2232008 3.91513838,54.453047 4.09236915,54.7392008 C4.21606145,54.9385854 4.30467684,55.161047 4.35913838,55.4056623 C4.41359991,55.6502777 4.44129222,55.9733546 4.44129222,56.373047 L4.44129222,57.4742777 L0.079753846,57.4742777 L0.079753846,56.3841239 C0.079753846,55.9595085 0.110215384,55.6207393 0.17113846,55.3705854 C0.232984612,55.1195085 0.31698461,54.9081239 0.424984608,54.7336624 C0.610523066,54.4373547 0.8569846,54.2056624 1.16529229,54.0395085 C1.47452305,53.8742778 1.84098458,53.7912008 2.26467688,53.7912008 Z M2.25544611,54.3967376 C1.91390766,54.3967376 1.62590766,54.4567377 1.39144613,54.5758146 C1.15790767,54.6948915 0.972369218,54.8730453 0.837599991,55.10843 C0.739753839,55.2801223 0.672369226,55.4628915 0.633599996,55.6558146 C0.595753843,55.8487377 0.577292305,56.08043 0.577292305,56.3499685 L0.577292305,56.8945838 L3.94283068,56.8945838 L3.94283068,56.3499685 C3.94283068,56.0702761 3.92344607,55.8275069 3.88190761,55.6188915 C3.84129222,55.4121223 3.76467684,55.2210454 3.65390761,55.0465838 C3.514523,54.8305838 3.33175377,54.6681223 3.10559993,54.5601223 C2.87852302,54.4521223 2.59513841,54.3967376 2.25544611,54.3967376 Z M4.44138446,50.0734134 L4.44138446,52.9451057 L0.0789230765,52.9451057 L0.0789230765,50.0734134 L0.594923058,50.0734134 L0.594923058,52.3654134 L1.79030763,52.3654134 L1.79030763,50.0734134 L2.30630761,50.0734134 L2.30630761,52.3654134 L3.92538448,52.3654134 L3.92538448,50.0734134 L4.44138446,50.0734134 Z M4.44138446,45.8159085 L4.44138446,46.5331392 L0.538615368,48.6008316 L4.44138446,48.6008316 L4.44138446,49.1426777 L0.0789230765,49.1426777 L0.0789230765,48.2436008 L3.64199987,46.3577546 L0.0789230765,46.3577546 L0.0789230765,45.8159085 L4.44138446,45.8159085 Z M4.12495365,41.368245 C4.17203057,41.4753219 4.21633826,41.5731681 4.25695364,41.6590142 C4.29756902,41.7457835 4.34003056,41.860245 4.38526133,42.0005527 C4.4221844,42.1196296 4.45356902,42.2488604 4.48126132,42.388245 C4.50710747,42.5285527 4.52095363,42.6817835 4.52095363,42.8488604 C4.52095363,43.1654758 4.47572286,43.4534758 4.38710748,43.7119373 C4.29756902,43.9694758 4.15910749,44.1956296 3.96987673,44.3867065 C3.78433828,44.5740911 3.5480306,44.7199373 3.26187677,44.8251681 C2.97572293,44.9303988 2.64341526,44.9839373 2.26403066,44.9839373 C1.90495375,44.9839373 1.583723,44.932245 1.3003384,44.8316296 C1.01787687,44.7300911 0.777876885,44.5833219 0.583107664,44.392245 C0.392953827,44.2067065 0.248953834,43.9823988 0.149261531,43.720245 C0.0495692283,43.4580911 -0.00027692309,43.1663988 -0.00027692309,42.8470142 C-0.00027692309,42.6125527 0.0283384601,42.3790142 0.0846461497,42.1454758 C0.141876916,41.9119373 0.240646142,41.6534758 0.383723058,41.368245 L1.07141533,41.368245 L1.07141533,41.4125527 C0.87110765,41.6525527 0.724338427,41.8897835 0.632953816,42.1260911 C0.540646128,42.3623988 0.494492284,42.6153219 0.494492284,42.8848604 C0.494492284,43.1054758 0.530492282,43.3039373 0.602492279,43.480245 C0.673569198,43.6565527 0.784338424,43.8143988 0.934799955,43.9528604 C1.0806461,44.0876296 1.26526148,44.1928604 1.48956916,44.2685527 C1.71295376,44.3433219 1.97141529,44.3811681 2.26403066,44.3811681 C2.57049218,44.3811681 2.83541525,44.3396296 3.05603062,44.2565527 C3.27572292,44.1734758 3.45572291,44.0663988 3.59510752,43.9353219 C3.73910751,43.7987065 3.84526135,43.6390142 3.91449212,43.4571681 C3.98464596,43.2743988 4.01972288,43.0814758 4.01972288,42.8793219 C4.01972288,42.5996296 3.97172289,42.3383988 3.87572289,42.0937835 C3.77972289,41.8500912 3.63664598,41.6211681 3.44556906,41.4088604 L3.44556906,41.368245 L4.12495365,41.368245 Z M4.44138446,39.011815 L4.44138446,40.7324303 L3.9964614,40.7324303 L3.9964614,40.1619688 L0.524769214,40.1619688 L0.524769214,40.7324303 L0.0789230765,40.7324303 L0.0789230765,39.011815 L0.524769214,39.011815 L0.524769214,39.5822765 L3.9964614,39.5822765 L3.9964614,39.011815 L4.44138446,39.011815 Z M4.4410153,34.6247066 L4.4410153,35.2422451 L3.22532302,35.6696297 L3.22532302,37.5554759 L4.4410153,37.9828605 L4.4410153,38.5708605 L0.0794769251,36.9831682 L0.0794769251,36.2114759 L4.4410153,34.6247066 Z M2.72778455,35.8477842 L0.586246151,36.6120919 L2.72778455,37.3791688 L2.72778455,35.8477842 Z M3.09950758,28.5923992 C3.31643065,28.5923992 3.50750757,28.6330145 3.67366141,28.7142453 C3.83889217,28.7963992 3.97643063,28.9071684 4.08350755,29.0456299 C4.21273831,29.2099376 4.30412292,29.3899376 4.35950754,29.5856299 C4.413046,29.7822453 4.44166138,30.030553 4.44166138,30.3333223 L4.44166138,31.8794761 L0.0791999974,31.8794761 L0.0791999974,30.5880915 C0.0791999974,30.270553 0.0911999969,30.0314761 0.114276919,29.8736299 C0.138276918,29.7157838 0.186276917,29.5643992 0.260123068,29.4203992 C0.344123065,29.2597838 0.452123061,29.1434761 0.584123056,29.0714761 C0.716123052,28.9994761 0.873046123,28.9634761 1.0576615,28.9634761 C1.26443072,28.9634761 1.44073841,29.0170145 1.58658456,29.1213222 C1.73150763,29.226553 1.8487384,29.3677838 1.9364307,29.5431684 L1.95950762,29.5431684 C2.0204307,29.2487069 2.14966146,29.0170145 2.34812299,28.8462453 C2.54658453,28.6763992 2.79581529,28.5923992 3.09950758,28.5923992 Z M3.12258468,29.1951683 C2.94720007,29.1951683 2.80689238,29.2210144 2.70443085,29.2736298 C2.60104623,29.3271683 2.51243085,29.4222452 2.44043085,29.5607067 C2.39150778,29.6539375 2.36012316,29.768399 2.34443086,29.9022452 C2.3305847,30.0351682 2.32320009,30.1976298 2.32320009,30.3896298 L2.32320009,31.2997836 L3.94689234,31.2997836 L3.94689234,30.5327067 C3.94689234,30.2788605 3.93304619,30.0711682 3.90720004,29.9087067 C3.87950773,29.7471682 3.83243081,29.6142452 3.76135389,29.5108606 C3.68473851,29.4019375 3.59889236,29.3216298 3.5010462,29.2708606 C3.40320005,29.2200913 3.27673852,29.1951683 3.12258468,29.1951683 Z M1.13427692,29.5662456 C1.02812308,29.5662456 0.939507691,29.5847071 0.86750769,29.619784 C0.79550769,29.6539379 0.736430766,29.7111687 0.691199997,29.7896302 C0.638584612,29.8810148 0.605353842,29.991784 0.593353842,30.122861 C0.580430765,30.2530148 0.573969227,30.4154763 0.573969227,30.6083994 L0.573969227,31.299784 L1.83396924,31.299784 L1.83396924,30.5502456 C1.83396924,30.3683994 1.82473847,30.2243994 1.80535385,30.1173225 C1.78781539,30.0102456 1.74904616,29.9096302 1.68996923,29.8182456 C1.63181539,29.726861 1.55612308,29.6622456 1.46289231,29.6234763 C1.37058462,29.5856302 1.25981539,29.5662456 1.13427692,29.5662456 Z M4.4410153,24.3861233 L4.4410153,25.0045848 L3.22532302,25.4319694 L3.22532302,27.3178156 L4.4410153,27.7452002 L4.4410153,28.3332002 L0.0794769251,26.7455079 L0.0794769251,25.9728925 L4.4410153,24.3861233 Z M2.72778455,25.6101235 L0.586246151,26.3744312 L2.72778455,27.1415081 L2.72778455,25.6101235 Z M4.44138446,20.3388921 L4.44138446,21.0561229 L0.538615368,23.122892 L4.44138446,23.122892 L4.44138446,23.6647381 L0.0789230765,23.6647381 L0.0789230765,22.7656613 L3.64199987,20.8798152 L0.0789230765,20.8798152 L0.0789230765,20.3388921 L4.44138446,20.3388921 Z M4.12495365,15.8912304 C4.17203057,15.9983073 4.21633826,16.0961535 4.25695364,16.1819996 C4.29756902,16.2696919 4.34003056,16.3832304 4.38526133,16.5235381 C4.4221844,16.642615 4.45356902,16.7718458 4.48126132,16.9112304 C4.50710747,17.050615 4.52095363,17.2047689 4.52095363,17.3718458 C4.52095363,17.6884612 4.47572286,17.9755381 4.38710748,18.2349227 C4.29756902,18.4933843 4.15910749,18.718615 3.96987673,18.9096919 C3.78433828,19.0970766 3.5480306,19.2429227 3.26187677,19.3481535 C2.97572293,19.4533843 2.64341526,19.5069227 2.26403066,19.5069227 C1.90495375,19.5069227 1.583723,19.4561535 1.3003384,19.3536919 C1.01787687,19.2530766 0.777876885,19.1063073 0.583107664,18.9152304 C0.392953827,18.7296919 0.248953834,18.5063073 0.149261531,18.2432304 C0.0495692283,17.9810766 -0.00027692309,17.6893843 -0.00027692309,17.3699996 C-0.00027692309,17.1355381 0.0283384601,16.9019996 0.0846461497,16.6684612 C0.141876916,16.4349227 0.240646142,16.1764612 0.383723058,15.8912304 L1.07141533,15.8912304 L1.07141533,15.934615 C0.87110765,16.1755381 0.724338427,16.4127689 0.632953816,16.6490766 C0.540646128,16.8853843 0.494492284,17.1383073 0.494492284,17.4078458 C0.494492284,17.6284612 0.530492282,17.8269227 0.602492279,18.0032304 C0.673569198,18.1795381 0.784338424,18.3373843 0.934799955,18.4758458 C1.0806461,18.610615 1.26526148,18.7158458 1.48956916,18.790615 C1.71295376,18.8663073 1.97141529,18.9032304 2.26403066,18.9032304 C2.57049218,18.9032304 2.83541525,18.8616919 3.05603062,18.778615 C3.27572292,18.6964612 3.45572291,18.5893843 3.59510752,18.4583073 C3.73910751,18.3216919 3.84526135,18.1619996 3.91449212,17.9801535 C3.98464596,17.7973843 4.01972288,17.6044612 4.01972288,17.4013843 C4.01972288,17.122615 3.97172289,16.8613843 3.87572289,16.6176919 C3.77972289,16.3730766 3.63664598,16.1450766 3.44556906,15.9318458 L3.44556906,15.8912304 L4.12495365,15.8912304 Z M4.4410153,11.6347379 L4.4410153,12.2531994 L3.22532302,12.680584 L3.22532302,14.5655071 L4.4410153,14.9928917 L4.4410153,15.5808917 L0.0794769251,13.9941225 L0.0794769251,13.2215071 L4.4410153,11.6347379 Z M2.72778455,12.858738 L0.586246151,13.6230457 L2.72778455,14.3901227 L2.72778455,12.858738 Z M4.44092299,7.42643066 L4.44092299,8.17966143 L2.70738456,9.63719989 L2.70738456,10.454123 L4.44092299,10.454123 L4.44092299,11.0328922 L0.0793846159,11.0328922 L0.0793846159,9.81258451 C0.0793846159,9.54950759 0.0950769233,9.32981528 0.130153846,9.15350759 C0.164307691,8.97812297 0.225230767,8.82027682 0.31384615,8.67996912 C0.412615378,8.52119989 0.538153837,8.39843066 0.68953845,8.30981528 C0.840923062,8.22119989 1.03292306,8.17596912 1.26553844,8.17596912 C1.58030766,8.17596912 1.84338458,8.25535374 2.05569227,8.41319989 C2.26707688,8.57104605 2.42676918,8.7888922 2.5338461,9.06673835 L4.44092299,7.42643066 Z M1.30615385,8.78243095 C1.18153847,8.78243095 1.07076923,8.80366172 0.973846153,8.84796941 C0.876923074,8.8922771 0.795692303,8.9642771 0.729230763,9.06673864 C0.671999993,9.14981556 0.633230761,9.24950787 0.610153838,9.36489248 C0.587999991,9.48027709 0.576923068,9.61504632 0.576923068,9.77196939 L0.576923068,10.4541232 L2.22369233,10.4541232 L2.22369233,9.86796939 C2.22369233,9.68520016 2.20800003,9.52458478 2.17476926,9.3879694 C2.14246156,9.25135402 2.08338464,9.13504633 1.99476925,9.03996941 C1.9126154,8.9522771 1.81846156,8.88673864 1.71138463,8.84520018 C1.60523078,8.80273864 1.47046155,8.78243095 1.30615385,8.78243095 Z M4.44138446,5.32763047 L4.44138446,7.04916892 L3.9964614,7.04916892 L3.9964614,6.47870739 L0.524769214,6.47870739 L0.524769214,7.04916892 L0.0789230765,7.04916892 L0.0789230765,5.32763047 L0.524769214,5.32763047 L0.524769214,5.89901508 L3.9964614,5.89901508 L3.9964614,5.32763047 L4.44138446,5.32763047 Z M4.4410153,0.922430758 L4.4410153,1.5408923 L3.22532302,1.96827692 L3.22532302,3.85320001 L4.4410153,4.28058463 L4.4410153,4.86858463 L0.0794769251,3.28181539 L0.0794769251,2.5092 L4.4410153,0.922430758 Z M2.72778455,2.14643072 L0.586246151,2.91073841 L2.72778455,3.67781534 L2.72778455,2.14643072 Z M8.85646143,66.0508618 C9.25246143,66.0508618 9.61153835,66.137631 9.93461527,66.3102464 C10.2567691,66.4828618 10.5059999,66.7127079 10.6841537,66.9988618 C10.806923,67.1982464 10.8955383,67.4207079 10.950923,67.6653233 C11.0053845,67.9099387 11.0321537,68.2330156 11.0321537,68.6327079 L11.0321537,69.7339387 L6.67153836,69.7339387 L6.67153836,68.6437848 C6.67153836,68.2191695 6.7019999,67.8804002 6.76292298,67.6302464 C6.82476913,67.3791695 6.90876913,67.1677849 7.01584605,66.9933233 C7.20138451,66.6970156 7.44784605,66.4653233 7.75615374,66.2991695 C8.06630759,66.1339387 8.43276912,66.0508618 8.85646143,66.0508618 Z M8.84723066,66.6563986 C8.50476913,66.6563986 8.21769221,66.7163986 7.98323068,66.8354755 C7.74969223,66.9545525 7.56323069,67.1327063 7.42846146,67.3680909 C7.33061531,67.5397833 7.26415378,67.7225525 7.22630762,67.9154756 C7.18661532,68.1083986 7.16907686,68.340091 7.16907686,68.6096294 L7.16907686,69.1542448 L10.5346152,69.1542448 L10.5346152,68.6096294 C10.5346152,68.3299371 10.5152306,68.0871679 10.4736922,67.8785525 C10.4321537,67.6717833 10.3564614,67.4807063 10.2447691,67.3062448 C10.1053845,67.0902448 9.92353832,66.9277832 9.69646141,66.8197832 C9.47123064,66.7117832 9.18599988,66.6563986 8.84723066,66.6563986 Z M11.0323386,62.2248942 L11.0323386,65.0965865 L6.67080022,65.0965865 L6.67080022,62.2248942 L7.18680021,62.2248942 L7.18680021,64.5168942 L8.3821848,64.5168942 L8.3821848,62.2248942 L8.89726171,62.2248942 L8.89726171,64.5168942 L10.5163386,64.5168942 L10.5163386,62.2248942 L11.0323386,62.2248942 Z M10.7168307,55.903016 C10.7639076,56.010093 10.8072922,56.1079391 10.8488307,56.1937853 C10.8894461,56.2805545 10.9309845,56.395016 10.9762153,56.5353237 C11.0140615,56.6544006 11.0463691,56.7836314 11.0722153,56.923016 C11.0989845,57.0633237 11.1119076,57.2165545 11.1119076,57.3836314 C11.1119076,57.7002468 11.0666768,57.9882468 10.9780615,58.2467083 C10.8894461,58.5042468 10.7509845,58.7304006 10.5617538,58.9214776 C10.3762153,59.1088622 10.1399076,59.2547083 9.85283072,59.3599391 C9.56667688,59.4651699 9.23529228,59.5187083 8.85590768,59.5187083 C8.49775384,59.5187083 8.17467693,59.467016 7.89129232,59.3664006 C7.6088308,59.2648622 7.3688308,59.1180929 7.17406158,58.927016 C6.98483082,58.7414776 6.84083082,58.5171699 6.74113852,58.255016 C6.64052314,57.9928622 6.59160006,57.7011699 6.59160006,57.3817853 C6.59160006,57.1473237 6.61929237,56.9137853 6.67652313,56.6802468 C6.73283083,56.4467083 6.83344621,56.1882468 6.97560005,55.903016 L7.66236926,55.903016 L7.66236926,55.9473237 C7.46298465,56.1873237 7.31621542,56.4245545 7.22483081,56.6608622 C7.13252312,56.8971699 7.0854462,57.150093 7.0854462,57.4196314 C7.0854462,57.6402468 7.1214462,57.8387083 7.19436927,58.015016 C7.26452311,58.1913237 7.37621542,58.3491699 7.52575388,58.4876314 C7.67160002,58.6224006 7.85713848,58.7276314 8.08144616,58.8033237 C8.30483077,58.8780929 8.56236923,58.9159391 8.85590768,58.9159391 C9.16236921,58.9159391 9.4263692,58.8744006 9.64790765,58.7913237 C9.86759995,58.7082468 10.0475999,58.6011699 10.1869846,58.4700929 C10.3309846,58.3334776 10.4371384,58.1737853 10.5072922,57.9919391 C10.576523,57.8091699 10.6106768,57.6162468 10.6106768,57.414093 C10.6106768,57.1344006 10.5635999,56.8731699 10.4675999,56.6285545 C10.372523,56.3848622 10.228523,56.1559391 10.0374461,55.9436314 L10.0374461,55.903016 L10.7168307,55.903016 Z M7.17073861,51.8336303 C7.36735399,51.6563995 7.6064309,51.5207072 7.88981551,51.4256303 C8.17320011,51.3305533 8.49350779,51.2834764 8.85258469,51.2834764 C9.21350776,51.2834764 9.53381543,51.3314764 9.81904619,51.4283995 C10.1024308,51.5243995 10.3396616,51.6600918 10.5288923,51.8336303 C10.7255077,52.0136303 10.8732,52.225938 10.9747384,52.4705533 C11.0735077,52.7151687 11.1242769,52.9948611 11.1242769,53.3096303 C11.1242769,53.6151688 11.0716615,53.8948611 10.9710461,54.1450149 C10.8704308,54.3960918 10.7218154,54.6083995 10.5288923,54.7847072 C10.3341231,54.9600919 10.0987385,55.0957842 9.81720004,55.189938 C9.53566159,55.2850149 9.21535391,55.3320919 8.85258469,55.3320919 C8.49720009,55.3320919 8.17873857,55.285938 7.89720012,55.1917842 C7.61381552,55.0976303 7.37196937,54.9610149 7.17073861,54.781938 C6.9796617,54.6102457 6.83289247,54.3970149 6.73227709,54.1413226 C6.62981556,53.8874765 6.57904633,53.6096303 6.57904633,53.3096303 C6.57904633,52.9967072 6.63166171,52.7160918 6.73412325,52.4677841 C6.83473863,52.2185533 6.98150785,52.0080918 7.17073861,51.8336303 Z M8.85258458,51.8862455 C8.28673842,51.8862455 7.85012303,52.0136301 7.54181533,52.2665532 C7.23350764,52.5203993 7.08027687,52.8665532 7.08027687,53.3059378 C7.08027687,53.7499377 7.23350764,54.0979377 7.54181533,54.3499377 C7.85012303,54.6019377 8.28673842,54.7293223 8.85258458,54.7293223 C9.42581536,54.7293223 9.86427691,54.6000916 10.1670461,54.3425531 C10.4716615,54.0850147 10.6230462,53.7397839 10.6230462,53.3059378 C10.6230462,52.8730147 10.4716615,52.5277839 10.1670461,52.2711686 C9.86427691,52.0154763 9.42581536,51.8862455 8.85258458,51.8862455 Z M11.0323386,47.6963065 L11.0323386,50.4544602 L6.67080022,50.4544602 L6.67080022,49.874768 L10.5163386,49.874768 L10.5163386,47.6963065 L11.0323386,47.6963065 Z M7.17073861,43.9815679 C7.36735399,43.803414 7.6064309,43.6677217 7.88981551,43.5726448 C8.17320011,43.4784909 8.49350779,43.431414 8.85258469,43.431414 C9.21350776,43.431414 9.53381543,43.479414 9.81904619,43.575414 C10.1024308,43.6723371 10.3396616,43.8071063 10.5288923,43.9815679 C10.7255077,44.1606448 10.8732,44.3729525 10.9747384,44.6175679 C11.0735077,44.8631064 11.1242769,45.1427987 11.1242769,45.4566448 C11.1242769,45.7631064 11.0716615,46.0418756 10.9710461,46.2920295 C10.8704308,46.5431064 10.7218154,46.7563372 10.5288923,46.9326449 C10.3341231,47.1080295 10.0987385,47.2427988 9.81720004,47.3378757 C9.53566159,47.4320295 9.21535391,47.4791065 8.85258469,47.4791065 C8.49720009,47.4791065 8.17873857,47.4329526 7.89720012,47.3387988 C7.61381552,47.245568 7.37196937,47.1089526 7.17073861,46.9289526 C6.9796617,46.7572603 6.83289247,46.5440295 6.73227709,46.2892603 C6.62981556,46.034491 6.57904633,45.7575679 6.57904633,45.4566448 C6.57904633,45.1446448 6.63166171,44.8640294 6.73412325,44.6147987 C6.83473863,44.366491 6.98150785,44.1551063 7.17073861,43.9815679 Z M8.85258458,44.0341831 C8.28673842,44.0341831 7.85012303,44.1606446 7.54181533,44.4144908 C7.23350764,44.6683369 7.08027687,45.0144908 7.08027687,45.4538754 C7.08027687,45.8969523 7.23350764,46.2449523 7.54181533,46.4969523 C7.85012303,46.7498754 8.28673842,46.8763369 8.85258458,46.8763369 C9.42581536,46.8763369 9.86427691,46.7471061 10.1670461,46.4904908 C10.4716615,46.2320292 10.6230462,45.8867985 10.6230462,45.4538754 C10.6230462,45.0200293 10.4716615,44.6757216 10.1670461,44.4191062 C9.86427691,44.1624908 9.42581536,44.0341831 8.85258458,44.0341831 Z M11.0323386,38.5940317 L11.0323386,39.173724 L7.27356944,39.173724 L9.83141554,40.3857239 L9.83141554,40.7309547 L7.27356944,41.9337239 L11.0323386,41.9337239 L11.0323386,42.47557 L6.67080022,42.47557 L6.67080022,41.6854162 L9.09941555,40.5232624 L6.67080022,39.3989547 L6.67080022,38.5940317 L11.0323386,38.5940317 Z M9.69129228,34.1840316 C9.90729227,34.1840316 10.0983692,34.224647 10.264523,34.3068008 C10.4316,34.3889547 10.5672923,34.4988009 10.6752923,34.6372624 C10.8035999,34.8015701 10.8949846,34.9815701 10.9512923,35.1772624 C11.0048307,35.3738778 11.032523,35.6231086 11.032523,35.9258778 L11.032523,37.4711086 L6.67098464,37.4711086 L6.67098464,36.180647 C6.67098464,35.8621855 6.68206157,35.6240316 6.70513849,35.4661855 C6.72913849,35.3074162 6.77713849,35.1569547 6.85098464,35.0120316 C6.93590772,34.8523393 7.04390771,34.7360316 7.17590771,34.6640316 C7.30790771,34.5920316 7.46575386,34.5560316 7.64852309,34.5560316 C7.85529231,34.5560316 8.03252308,34.608647 8.17836923,34.7138778 C8.32236923,34.8191085 8.43959999,34.9594162 8.52821538,35.1348009 L8.5512923,35.1348009 C8.6112923,34.8403393 8.74052306,34.608647 8.9389846,34.4388009 C9.13744613,34.2689547 9.38759997,34.1840316 9.69129228,34.1840316 Z M9.7143691,34.7868007 C9.53806141,34.7868007 9.39867679,34.81357 9.29621525,34.8661853 C9.19190756,34.9188007 9.10329218,35.0148007 9.03129218,35.1523392 C8.9823691,35.246493 8.95190756,35.3600315 8.93713833,35.4938776 C8.92144602,35.6277238 8.91406141,35.7901853 8.91406141,35.9812622 L8.91406141,36.8914161 L10.5386768,36.8914161 L10.5386768,36.1243391 C10.5386768,35.8714161 10.5239076,35.6628007 10.4989845,35.5012622 C10.4712922,35.3397238 10.4232922,35.2068007 10.3522152,35.1034161 C10.2765229,34.99357 10.1906768,34.9141853 10.0928306,34.8634161 C9.9940614,34.8126469 9.86944602,34.7868007 9.7143691,34.7868007 Z M7.72606145,35.1588006 C7.61898452,35.1588006 7.53129221,35.1763391 7.45929221,35.211416 C7.3872922,35.2464929 7.3272922,35.3037237 7.28206143,35.3812621 C7.23036912,35.4726468 7.19713835,35.5843391 7.18513835,35.7144929 C7.17221527,35.8455698 7.16483066,36.0080314 7.16483066,36.2009544 L7.16483066,36.8914159 L8.42575379,36.8914159 L8.42575379,36.1418775 C8.42575379,35.9609544 8.41652302,35.8160314 8.39806148,35.7089544 C8.37867686,35.6018775 8.34083071,35.5021852 8.2808307,35.4108006 C8.22359993,35.3184929 8.14790762,35.2538775 8.05375377,35.2160314 C7.96236915,35.1772621 7.85159992,35.1588006 7.72606145,35.1588006 Z M11.0323386,31.8778148 L11.0323386,33.5993532 L10.5874155,33.5993532 L10.5874155,33.0288917 L7.11664636,33.0288917 L7.11664636,33.5993532 L6.67080022,33.5993532 L6.67080022,31.8778148 L7.11664636,31.8778148 L7.11664636,32.4491994 L10.5874155,32.4491994 L10.5874155,31.8778148 L11.0323386,31.8778148 Z M11.0318769,27.4726142 L11.0318769,28.0910757 L9.81710764,28.5184603 L9.81710764,30.4033834 L11.0318769,30.830768 L11.0318769,31.418768 L6.6712615,29.8319988 L6.6712615,29.0593834 L11.0318769,27.4726142 Z M9.31956938,28.6966143 L7.17803098,29.460922 L9.31956938,30.227999 L9.31956938,28.6966143 Z" id="path-1"></path>
    </defs>
    <g id="Page-1" stroke="none" stroke-width="1" fill="none" fill-rule="evenodd">
        <g id="Terminos-y-condiciones-Copy-6" transform="translate(-411.000000, -841.000000)">
            <g id="Group" transform="translate(395.000000, 822.000000)">
                <g id="Group-4">
                    <g id="logo" transform="translate(16.000000, 19.000000)">
                        <mask id="mask-2" fill="white">
                            <use xlink:href="#path-1"></use>
                        </mask>
                        <use id="Mask" fill="#000000" xlink:href="#path-1"></use>
                        <g id="Elements-/-Color-/-Principal-/-Black" mask="url(#mask-2)" fill="#FFFFFF">
                            <rect id="Rectangle" x="0" y="0" width="12" height="151.384613"></rect>
                        </g>
                    </g>
                </g>
            </g>
        </g>
    </g>
</svg>