<?xml version="1.0" encoding="UTF-8"?>
<svg width="102px" height="52px" viewBox="0 0 102 52" version="1.1" xmlns="http://www.w3.org/2000/svg" xmlns:xlink="http://www.w3.org/1999/xlink">
    <!-- Generator: Sketch 55.1 (78136) - https://sketchapp.com -->
    <title>Logo/Principal</title>
    <desc>Created with Sketch.</desc>
    <g id="Page-1" stroke="none" stroke-width="1" fill="none" fill-rule="evenodd">
        <g id="Terminos-y-condiciones-Copy-6" transform="translate(-669.000000, -19.000000)">
            <g id="Logo/Principal" transform="translate(669.000000, 19.000000)">
                <path d="M90.9231,19.7716 C90.8611,19.5186 91.6741,19.3716 91.6731,19.3306 C91.6701,19.0956 91.7081,19.1086 91.5231,19.0786 L87.0781,19.0766 C86.9561,19.0766 87.0691,19.7106 87.1691,19.7156 C87.5911,19.7336 88.0561,19.6886 88.2351,20.0256 L90.0731,23.4856 C90.9121,25.0646 91.6821,26.6536 91.5991,27.0516 C91.4821,27.6246 90.4531,30.2086 89.0431,30.5486 C88.4891,30.6826 87.2831,30.2206 87.3591,30.4606 C87.4281,30.6896 87.3501,31.7496 86.8761,32.7446 C86.8451,32.8116 88.2221,33.0776 89.3641,32.3736 C89.8721,32.0606 90.2511,31.4316 90.5791,30.7186 L94.9571,21.1996 C95.1201,20.8606 95.2901,20.2976 95.6571,19.9506 C96.0481,19.5826 96.6331,19.4386 96.6351,19.4336 L96.7351,19.0666 L93.4311,19.0726 C93.2731,19.0916 93.4001,19.4556 93.4291,19.4466 C93.5411,19.4176 93.8851,19.4816 94.0621,19.5766 C94.5481,20.0896 94.5651,20.1766 94.2841,21.0866 L92.8911,24.2206 C92.5821,23.5616 91.1991,20.8946 90.9231,19.7716" id="Fill-1" fill="#1E1045"></path>
                <path d="M84.8831,19.6828 L86.9861,19.6848 C87.1081,19.6848 87.1921,19.6868 87.2381,19.6328 C87.2971,19.5668 87.2881,19.2448 87.2561,19.1608 C87.2371,19.1048 87.1971,19.0628 87.1541,19.0628 L86.4301,19.0668 L85.1671,19.0668 C84.7231,19.0668 84.8751,18.8688 84.8741,18.2638 L84.8671,16.3338 C84.8661,16.0168 84.6961,15.9748 84.4041,16.2648 L81.3241,19.3278 C81.1651,19.4868 81.2061,19.6788 81.3671,19.6798 L82.5211,19.6818 C82.6141,19.6818 82.6141,19.8908 82.6141,20.0168 L82.6141,24.7058 C82.6141,27.3408 86.1051,27.7188 87.4421,26.0308 C87.6241,25.7988 87.9351,25.2158 87.5131,25.5018 C86.0441,26.4988 84.8881,25.9918 84.8871,24.2248 L84.8831,19.6828 Z" id="Fill-3" fill="#1E1045"></path>
                <path d="M73.2962,19.4254 C73.3082,19.7384 74.7272,19.0254 74.7272,21.1664 L74.7272,25.0854 C74.7272,26.4594 73.3732,26.2124 73.3822,26.4224 C73.3872,26.5414 73.3692,26.7444 73.4432,26.7444 L78.2812,26.7464 C78.3172,26.7464 78.3632,26.3584 78.2842,26.3514 C77.0652,26.2414 77.0872,25.5774 77.0872,24.8044 L77.0872,21.8114 C77.0872,21.6194 77.4122,21.1774 78.1052,20.9594 C79.9002,20.3944 79.9872,21.6274 80.3562,21.6164 C80.6512,21.6074 80.8732,20.0104 80.8512,19.7844 C80.7342,18.6964 79.5852,18.4624 78.8362,18.8424 C77.8652,19.3374 77.3242,20.6254 77.0522,21.0994 C77.0402,21.1214 77.1562,18.7104 77.1072,18.7134 L73.2812,18.9294 L73.2962,19.4254 Z" id="Fill-5" fill="#1E1045"></path>
                <path d="M72.8528,22.1871 C73.1008,22.1871 73.0238,21.9981 73.0088,21.8601 C72.2518,18.8701 69.4568,18.0871 67.3618,18.9961 C65.8328,19.6591 64.7858,21.1281 64.7768,23.0341 C64.7798,23.6401 64.9638,24.2881 65.1718,24.7721 C65.3828,25.2531 65.6758,25.6681 66.0558,26.0111 C66.4358,26.3541 66.8798,26.6151 67.3858,26.7941 C69.5978,27.5871 71.9588,26.6541 72.9918,24.5781 C73.1258,24.3081 73.0298,24.2411 72.9538,24.3231 C70.0458,27.4141 68.0368,25.6401 67.4628,23.9871 C67.1508,23.0831 67.1798,22.1871 67.1968,22.1871 L72.8528,22.1871 Z M67.1938,21.7161 C67.1598,21.7161 67.3038,19.4371 68.8788,19.2901 C70.1688,19.1701 71.1138,21.7021 70.4838,21.7051 L67.1938,21.7161 Z" id="Fill-7" fill="#1E1045"></path>
                <path d="M54.8958,26.4938 C54.8958,26.6038 54.8378,26.8378 55.0408,26.8398 C56.8608,26.8548 57.1538,27.0778 57.3378,27.0928 C58.8638,27.2158 60.4808,26.9918 61.3188,26.6428 C62.4798,26.1608 63.2468,25.3628 63.6488,24.1748 C64.3468,22.1258 63.3658,19.3418 61.0898,18.8068 C58.3798,18.1698 57.1128,20.7998 57.1248,19.6278 L57.1798,13.8898 L53.6858,14.1248 L53.7038,14.4278 C53.7088,14.5198 54.9318,14.8778 54.9318,15.0748 L54.8958,26.4938 Z M57.1908,21.1848 C57.1908,21.0468 57.1958,20.9168 57.2168,20.7978 C57.2918,20.3778 58.5168,19.8908 58.8588,19.8528 C62.4288,19.4588 62.2818,26.4628 58.6598,26.4908 C57.4278,26.5008 57.1908,25.9148 57.1908,24.8478 L57.1908,21.1848 Z" id="Fill-9" fill="#1E1045"></path>
                <path d="M52.3851,15.3239 C52.3811,15.0639 52.3231,14.8319 52.2021,14.6219 C52.0831,14.4149 51.9221,14.2499 51.7161,14.1259 C51.5131,14.0019 51.2811,13.9399 51.0211,13.9359 C50.7471,13.9399 50.5061,14.0069 50.2981,14.1349 C50.0921,14.2619 49.9271,14.4319 49.8111,14.6379 C49.6951,14.8449 49.6371,15.0639 49.6331,15.2989 C49.6371,15.5429 49.6951,15.7619 49.8191,15.9639 C49.9391,16.1669 50.1001,16.3279 50.3111,16.4519 C50.5171,16.5719 50.7531,16.6339 51.0211,16.6379 C51.2951,16.6339 51.5321,16.5679 51.7391,16.4399 C51.9431,16.3119 52.1001,16.1499 52.2111,15.9519 C52.3261,15.7539 52.3851,15.5429 52.3851,15.3239" id="Fill-11" fill="#1E1045"></path>
                <path d="M49.9349,24.7062 C49.9259,24.9852 49.9189,25.7602 49.6379,25.9612 C49.3909,26.1382 48.6339,26.4112 48.6359,26.4482 C48.6459,26.6622 48.7759,26.7012 48.9629,26.7002 L52.5599,26.6802 C52.7679,26.6792 53.0269,26.7412 53.2279,26.6702 C53.4309,26.5992 53.3309,26.3102 53.1119,26.3112 C52.0879,26.3142 52.3309,25.3472 52.3089,24.7752 C52.1479,20.9212 52.2319,19.4602 52.2329,18.7792 C52.2329,18.6232 49.6389,18.8842 48.5599,19.0402 C48.4429,19.0582 48.5029,19.4952 48.5729,19.4912 C49.6139,19.4442 50.0769,20.1952 50.0479,21.0652 L49.9349,24.7062 Z" id="Fill-13" fill="#1E1045"></path>
                <path d="M40.4319,24.7057 C40.4339,24.9087 40.4299,25.0927 40.4159,25.2567 C40.3369,26.2787 38.8659,26.2437 38.8829,26.3087 L38.9949,26.6907 L47.3609,26.6847 C47.8279,26.6847 47.8819,26.7077 47.9879,26.6057 C48.0549,26.5397 48.0959,26.4157 48.1129,26.2357 C48.1499,25.3737 48.2859,24.4987 48.3539,23.6367 C48.3599,23.5657 48.2879,23.5537 48.1949,23.5517 C47.9899,23.5477 47.8989,23.8737 47.8239,24.0137 C47.3799,24.8297 47.0359,25.4427 46.1659,25.8557 C45.5689,26.1397 44.1739,26.2487 43.5769,25.8637 C43.3489,25.7217 43.1909,25.5087 43.0979,25.2317 C43.0039,24.9537 42.9619,24.6087 42.9619,24.2027 L42.9619,16.7387 C42.9619,16.5547 42.9799,16.4347 42.9969,16.2797 C43.0149,16.1287 43.0529,15.9927 43.1179,15.8767 C43.1819,15.7597 43.3089,15.6357 43.4499,15.5667 C43.5369,15.5227 44.3329,15.1627 44.6759,14.9837 C44.8199,14.9087 44.7939,14.8527 44.7229,14.8767 L39.1249,14.8627 C39.0719,14.8627 38.8669,14.8637 38.8049,14.8727 C38.7449,14.8817 38.7909,15.0907 38.8469,15.1097 C39.4819,15.3337 40.3189,15.4787 40.3689,16.2957 C40.3769,16.4567 40.3819,16.6387 40.3829,16.8387 L40.4319,24.7057 Z" id="Fill-15" fill="#1E1045"></path>
                <polygon id="Fill-17" fill="#1E1045" points="38.903 31.241 85.464 31.241 85.464 30.529 38.903 30.529"></polygon>
                <polygon id="Fill-19" fill="#1E1045" points="92.205 31.241 101.896 31.241 101.896 30.529 92.205 30.529"></polygon>
                <path d="M87.9368,38.0836 C87.4248,38.0876 86.9568,38.1466 86.5358,38.2596 C86.1088,38.3706 85.7358,38.5086 85.4158,38.6776 C85.0928,38.8436 84.8288,39.0116 84.6208,39.1826 C84.3548,39.3846 84.1168,39.6306 83.8978,39.9166 C83.6838,40.2046 83.5138,40.5336 83.3868,40.9016 C83.2578,41.2686 83.1928,41.6756 83.1898,42.1176 C83.1928,42.4746 83.2618,42.8336 83.3928,43.1976 C83.5288,43.5606 83.7108,43.9006 83.9458,44.2206 C84.1778,44.5386 84.4438,44.8096 84.7458,45.0356 C85.0028,45.2296 85.2958,45.4036 85.6198,45.5526 C85.9428,45.6976 86.2788,45.8116 86.6218,45.8936 C86.9618,45.9746 87.2908,46.0196 87.6048,46.0196 C87.9258,46.0196 88.2508,45.9946 88.5828,45.9386 C88.9158,45.8866 89.2398,45.8016 89.5578,45.6876 C89.8788,45.5746 90.1818,45.4256 90.4668,45.2426 C90.6638,45.1286 90.8678,44.9706 91.0788,44.7756 C91.2918,44.5766 91.4888,44.3396 91.6748,44.0646 C91.8618,43.7906 92.0138,43.4846 92.1318,43.1406 C92.2488,42.7996 92.3068,42.4266 92.3108,42.0236 C92.3068,41.5306 92.2208,41.0796 92.0548,40.6676 C91.8898,40.2576 91.6578,39.8916 91.3698,39.5736 C91.0788,39.2516 90.7478,38.9836 90.3748,38.7626 C89.9998,38.5416 89.6058,38.3706 89.1878,38.2566 C88.7728,38.1406 88.3548,38.0836 87.9368,38.0836 M88.2898,38.7406 C88.9008,38.8606 89.4138,39.2676 89.6938,39.7596 C90.0008,40.2996 90.0408,41.1466 90.0228,41.7436 C89.9978,42.5426 89.9578,43.7446 89.4618,44.4306 C89.2328,44.7506 88.9368,45.2466 88.2528,45.3226 C86.4148,45.5286 85.8668,44.1716 85.6678,42.9256 C85.5538,42.2146 85.6148,40.9746 85.8288,40.3456 C86.1698,39.3386 87.0538,38.4986 88.2898,38.7406" id="Fill-20" fill="#1E1045"></path>
                <path d="M56.2015,40.0187 C55.7905,41.0367 55.8655,41.6637 56.3615,42.5157 C56.6975,43.0917 57.5535,43.3437 57.8975,43.4677 C58.0535,43.5227 58.1925,43.6267 58.0125,43.7207 C57.8055,43.8247 57.1325,44.0167 56.5595,44.2907 C55.8905,44.6137 55.5105,45.9717 56.6865,46.5647 C57.2655,46.8567 58.0565,46.8037 57.8585,47.1037 C57.8055,47.1877 57.4175,47.1997 56.9285,47.3737 C55.6875,47.8127 55.4335,48.5237 55.4255,49.0897 C55.4075,50.0577 56.5925,50.8667 58.0435,51.2527 C58.7525,51.4417 59.5715,51.4847 60.2585,51.4847 C60.7305,51.4847 61.4815,51.3757 62.0525,51.1747 C62.9375,50.8607 63.6415,50.3227 64.1655,49.6257 C64.7535,48.8427 64.9305,47.7107 63.9395,46.7067 C62.7275,45.4777 60.1655,45.5427 58.5835,45.2567 C57.1365,44.9947 57.8305,43.7907 59.0005,43.8667 C59.5345,43.9007 60.4545,43.9407 61.1115,43.7727 C63.1675,43.2477 64.7965,41.5897 62.8175,39.5397 C62.8025,39.5237 62.8135,39.4837 62.8355,39.4447 C62.8545,39.4067 62.8915,39.3807 62.9425,39.3807 L64.5555,39.3807 L64.5925,38.2557 L64.4385,38.0897 L59.3615,38.0716524 C58.9625,38.0697 58.5165,38.1307 58.1765,38.2607 C57.4045,38.5527 56.5375,39.1877 56.2015,40.0187 M57.1515,48.2797 C56.8825,46.8837 63.4375,46.6617 63.2895,49.1057 C63.2385,49.9357 61.4355,50.2507 60.2425,50.1077 C58.9655,49.9557 57.4035,49.5857 57.1515,48.2797 M58.6175,39.1647 C59.3965,38.4557 60.6635,38.4747 61.3025,39.6107 C61.8625,40.6127 61.8985,42.2237 60.7225,43.0217 C60.0105,43.5047 58.9595,43.2157 58.5255,42.6127 C58.2935,42.2897 58.1405,41.8947 58.0605,41.4997 C57.9255,40.8197 57.9985,39.7277 58.6175,39.1647" id="Fill-21" fill="#1E1045"></path>
                <path d="M39.178,37.6369 C39.394,39.3279 40.364,40.1069 41.306,40.7109 C41.854,41.0609 42.539,41.4769 43.08,41.7469 C44.416,42.4129 45.476,43.7279 44.009,44.8559 C43.5,45.2479 42.714,45.3509 42.007,45.2199 C41.637,45.1529 41.301,44.9499 41.008,44.8409 C39.577,44.3049 39.64,42.5119 39.474,42.3259 C39.395,42.2389 39.013,42.2769 38.961,42.2769 C38.927,42.2769 38.99,45.7399 38.964,45.9329 C38.955,46.0109 39.272,45.9839 39.356,45.9619 C39.633,45.8889 39.569,45.3279 39.685,45.3429 C40.756,45.4689 41.362,46.1329 43.089,45.9749 C43.422,45.9449 43.81,45.8669 44.112,45.7699 C44.694,45.5789 45.441,45.1479 45.792,44.6579 C46.605,43.5189 46.64,42.0019 45.966,40.8429 C45.783,40.5309 45.532,40.3049 45.16,39.9829 C44.042,39.0139 41.529,38.3599 40.931,37.1819 C39.546,34.4409 44.714,33.8819 45.416,36.8759 C45.423,36.9049 45.406,37.1599 45.44,37.1609 C45.54,37.1639 45.751,37.1449 45.82,37.1749 C45.937,37.2279 45.888,36.8969 45.888,36.7829 L45.893,34.2129 C45.893,33.8649 45.572,33.9609 45.418,34.1219 C45.272,34.2779 45.053,34.3739 44.907,34.4059 C44.629,34.4629 44.255,34.4279 44.049,34.3329 C43.217,33.9519 41.898,34.0519 40.933,34.4699 C39.907,34.9169 38.975,36.0369 39.178,37.6369" id="Fill-22" fill="#1E1045"></path>
                <path d="M54.7395,41.3903 C54.9755,41.3903 54.9035,41.2093 54.8885,41.0793 C54.1675,38.2273 51.5015,37.4803 49.5035,38.3483 C48.0475,38.9803 47.0485,40.3813 47.0395,42.1983 C47.0415,42.7773 47.2185,43.3933 47.4155,43.8563 C47.6165,44.3143 47.8965,44.7103 48.2605,45.0363 C48.6215,45.3633 49.0465,45.6123 49.5275,45.7833 C51.6365,46.5403 53.8875,45.6503 54.8725,43.6703 C55.0005,43.4123 54.9085,43.3483 54.8345,43.4273 C52.0635,46.3743 50.1455,44.6823 49.6015,43.1063 C49.3025,42.2443 49.3295,41.3903 49.3465,41.3903 L54.7395,41.3903 Z M49.3435,40.9413 C49.3105,40.9413 49.4485,38.7673 50.9515,38.6273 C52.1795,38.5133 53.0805,40.9283 52.4805,40.9303 L49.3435,40.9413 Z" id="Fill-23" fill="#1E1045"></path>
                <path d="M75.2122,45.6666 C73.9422,45.7946 72.7712,45.8516 71.8732,45.8176 L71.8742,44.3636 C71.8742,44.3106 71.8662,44.2556 71.8602,44.2016 C70.6682,45.6766 68.7142,46.2516 67.4682,45.6006 C66.9212,45.3156 66.2892,44.7166 66.2912,44.0386 L66.3002,40.0986 C66.3022,39.4916 66.2972,39.2006 66.1832,39.0746 C66.0412,38.9226 65.9962,38.8556 65.2542,38.7956 L65.2632,38.3756 C66.1472,38.3086 67.9522,38.0626 68.5112,38.0476 L68.5072,41.9926 C68.5062,43.2856 68.5932,44.2596 69.0922,44.6336 C69.9462,45.2766 71.7332,44.2536 71.8532,43.2946 C71.9112,43.0146 71.9662,41.9916 71.9662,40.4706 C71.9662,39.5836 71.8312,39.0386 71.7132,38.9106 C71.5942,38.7816 71.3942,38.8126 70.6142,38.7396 L70.6722,38.2996 C71.7532,38.2026 72.9472,38.2046 73.9762,38.0556 L74.0052,43.1146 C74.0092,43.8026 73.9392,44.5016 74.3242,44.9326 C74.4882,45.1136 74.7502,45.2326 75.1092,45.3066 C75.3072,45.3496 75.2452,45.4406 75.2122,45.6666" id="Fill-24" fill="#1E1045"></path>
                <path d="M75.6819,38.7741 C75.7109,39.0761 77.0459,38.2161 77.0459,40.3461 L77.0459,44.1401 C77.0459,45.4701 75.7509,45.2071 75.7599,45.4101 C75.7639,45.5251 75.7329,45.7451 75.8059,45.7451 L80.4899,45.7481 C80.5229,45.7481 80.5689,45.3731 80.4939,45.3651 C79.4999,45.2781 79.2389,44.6161 79.2389,43.8681 L79.2389,41.2561 C79.2389,41.0701 79.6479,40.3561 80.3179,40.1451 C82.0549,39.5981 82.2159,40.8491 82.5739,40.8381 C82.7449,40.0091 83.0929,39.0361 83.0719,38.8171 C83.0149,38.2901 82.5819,38.0881 82.1569,38.0751 C80.6939,38.0321 79.8789,39.2661 79.2229,40.4141 C79.2119,40.4341 79.3429,38.0251 79.2929,38.0280972 L75.6479,38.4271 L75.6819,38.7741 Z" id="Fill-25" fill="#1E1045"></path>
                <path d="M93.0491,40.5338 C93.1811,42.1828 94.6431,42.3478 96.0901,42.9218 C97.7991,43.5998 97.6241,44.6868 96.7651,45.1588 C96.0551,45.5498 94.8501,45.5158 94.0781,44.5208 C93.6871,44.0158 93.5251,43.4038 93.2781,43.1688 C93.2171,43.1098 92.9211,43.1358 92.8831,43.1358 C92.8561,43.1358 92.8721,45.8438 92.8551,45.9708 C92.8201,46.2018 93.5281,45.4808 93.6341,45.4828 C94.5211,45.4948 95.4811,46.0798 96.4001,45.8618 C98.1551,45.4438 98.6601,44.5478 98.6871,43.2788 C98.7071,42.3168 97.9711,41.4278 96.8081,40.9938 C96.1541,40.7498 95.2461,40.4548 94.7821,40.0778 C93.7321,39.2268 95.0801,38.4408 96.3751,38.8608 C97.8931,39.3528 97.8221,40.3538 97.8491,40.3548 C97.9261,40.3568 98.1201,40.3278 98.1721,40.3478 C98.2631,40.3828 98.2251,39.0358 98.2131,38.1718 C98.2111,38.0138 98.0671,38.0358 97.9571,38.0998 C97.9231,38.1198 97.8591,38.1928 97.8311,38.2078 C97.5951,38.3438 97.0581,38.3318 96.8151,38.2358 C96.1721,37.9848 95.1321,38.0188 94.3891,38.2968 C93.5951,38.5928 92.9651,39.4668 93.0491,40.5338" id="Fill-26" fill="#1E1045"></path>
                <path d="M37.0755,20.4703 C36.9575,20.3143 36.6635,20.4413 36.6635,20.4413 L31.9935,22.1723 C31.6325,21.2903 31.2155,20.4573 30.7365,19.6853 L32.2505,15.5573 C32.2505,15.5573 32.4395,15.1453 32.2665,15.0453 C32.0905,14.9403 31.8065,15.2163 31.8065,15.2163 L29.0575,17.4693 C27.9865,16.3213 26.7285,15.3953 25.2815,14.7413 C24.7455,14.5003 24.1835,14.2993 23.5975,14.1353 L22.7455,10.8683 C22.7455,10.8683 22.6735,10.5423 22.4515,10.5423 C22.2345,10.5423 22.1765,10.8503 22.1765,10.8503 L21.6305,13.7363 C21.0325,13.6603 20.4175,13.6173 19.7795,13.6173 C17.7295,13.6173 15.9095,14.0063 14.3135,14.7213 C13.6325,15.0273 12.9885,15.3953 12.3895,15.8153 C12.2895,15.8853 12.1955,15.9613 12.0975,16.0353 C11.5305,14.5743 11.0835,13.3843 11.0005,13.0243 C11.3155,12.7383 11.9765,11.6983 12.1385,10.9943 C12.3635,10.0143 12.2945,9.5473 12.0575,8.8033 C11.8875,8.2603 11.5425,7.7513 11.5655,7.4073 C11.5835,7.1493 11.7195,6.9663 11.8335,6.8493 C11.7715,6.4903 11.5375,6.3293 11.2595,6.2953 C11.0005,6.2603 10.8005,6.3353 10.5725,6.3463 C10.5135,6.2413 10.3985,6.2603 10.4855,5.8873 C10.6165,5.3233 11.6985,5.0573 12.5825,4.7153 C13.7025,4.2803 14.3285,3.4733 14.3685,2.1773 C14.3945,1.2363 13.8695,0.5373 13.2135,0.2243 C13.0795,0.6033 12.5335,1.1153 12.1545,1.3233 C11.7805,1.5313 11.2625,1.6073 10.8875,1.5223 C10.9695,0.8303 10.6475,0.2373 10.1425,0.0003 C9.9815,0.2943 9.3725,0.7033 8.4575,0.6733 C7.5425,0.6463 7.4835,0.4313 6.1975,0.4343 C4.3685,0.4373 2.8525,1.5383 2.6665,3.1603 C2.5445,4.2133 2.9515,5.0953 3.2575,5.5553 C3.0285,5.7253 2.4935,6.2413 2.3975,6.3933 C2.2665,6.2413 1.9025,6.0343 1.4665,6.3203 C1.5595,6.5503 1.5775,6.8303 1.5055,7.0973 C1.4295,7.3643 0.7605,8.6593 0.6845,9.7073 C0.5545,11.4783 1.5775,12.6793 2.4355,13.0223 C2.2475,13.3083 2.2085,13.6123 2.3425,13.8603 C2.4295,14.0263 2.6075,14.1873 2.9715,14.1873 C2.7625,14.4143 2.6815,14.7603 2.8175,15.1003 C2.9715,15.4803 3.4085,16.0343 3.7895,16.0343 C3.7695,16.3573 3.9245,17.1183 3.9995,17.4233 C3.8675,17.6733 3.7315,17.8593 3.7515,18.3173 C3.7695,18.7913 4.0765,19.1763 4.4555,19.2513 C4.5525,19.4833 4.6235,19.7333 4.7575,19.8853 C4.8895,20.0403 5.0075,20.2253 5.2945,20.4143 C5.5805,20.6043 5.9045,20.7593 6.2865,20.7593 C6.6675,20.7593 7.0025,20.7763 7.1745,20.7203 C7.1835,20.8293 7.2195,21.8373 7.2625,22.9573 C6.3035,25.6243 5.8265,28.7153 5.8265,32.0323 L5.8265,32.0333 C5.8265,37.9773 7.5215,43.2773 10.7595,46.6883 C10.7595,46.6883 10.9455,46.9173 11.4655,47.2553 C11.4655,47.2553 12.4775,45.5213 14.0185,43.5543 C14.4075,43.0553 14.8555,42.5733 15.3475,42.1073 C16.1065,41.4493 16.8425,40.8613 17.5585,40.3443 C19.5495,38.9853 21.8545,37.9533 23.9845,37.5103 C21.5415,38.7713 20.1565,39.4453 17.8605,41.4143 C16.4055,42.6613 14.0905,44.8633 12.5075,47.8763 C12.8355,48.1383 13.2795,48.4063 13.8045,48.4593 C14.1385,48.0653 15.8615,44.9073 18.5025,42.3693 C23.8505,37.3623 30.1505,36.2043 33.4485,36.2683 C33.6345,34.9083 33.7295,33.4933 33.7295,32.0323 C33.7295,29.6403 33.4805,27.3653 32.9815,25.2813 L36.9195,20.9003 C36.9195,20.9003 37.1915,20.6253 37.0755,20.4703" id="Fill-27" fill="#1E1045"></path>
                <path d="M7.7903,18.4899 C7.5603,18.3589 6.9333,18.0529 6.4363,18.0719 C5.9233,18.0909 5.4893,18.1959 5.0853,18.4549 C4.9133,18.3389 4.8603,18.1089 4.9703,17.8439 C5.0803,17.5769 5.2363,17.5359 5.2363,17.5359 L5.0933,15.0429 C5.0933,15.0429 5.7953,14.5409 5.9823,14.4869 C6.1733,14.4279 6.2613,14.2799 6.2613,14.0899 C6.5703,14.2999 7.0293,14.7699 7.2753,15.1199 C7.5053,15.4429 7.6383,15.8039 7.6563,16.2049 C7.6753,16.6049 7.6803,17.0819 7.5993,17.5769 C7.7553,17.7109 7.9043,17.8229 7.9233,18.0339 C7.9413,18.2459 7.8643,18.3209 7.7903,18.4899" id="Fill-28" fill="#FFFFFF"></path>
                <path d="M30.5403,26.2638 C30.5133,25.7778 29.9473,24.4618 29.6043,24.1758 L35.5323,21.5478 L30.5403,26.2638 Z" id="Fill-29" fill="#FFFFFF"></path>
                <path d="M14.2825,16.445 L19.2985,20.996 C18.8125,21.267 18.0885,22.001 17.8875,22.6 L14.2825,16.445 Z" id="Fill-30" fill="#FFFFFF"></path>
                <path d="M17.2181,25.4606 C17.0451,25.7256 16.9851,25.8876 16.9261,26.2106 C16.8691,26.5356 16.9121,26.7156 16.9501,26.9816 L15.4131,25.9206 C15.4311,25.5606 15.3351,24.9696 15.3121,24.6636 C15.3081,24.6316 15.2981,24.5746 15.2901,24.5306 L17.2181,25.4606 Z" id="Fill-31" fill="#FFFFFF"></path>
                <path d="M8.7425,25.9025 C8.6455,25.7315 8.2075,16.4715 8.1905,16.1465 L8.6855,15.7865 L8.6855,15.6915 C8.3235,15.6725 7.9045,15.5395 7.7715,15.3275 L7.6385,12.4905 C7.1425,12.4515 6.6325,12.2945 6.4405,12.1055 C6.2035,11.8665 6.0195,11.5735 6.2865,11.0605 C6.5335,11.2325 7.2575,11.4425 7.8865,11.4425 C8.0185,11.4425 8.2985,11.7415 8.4575,11.8065 C8.6405,11.8755 8.9455,12.0455 9.0905,12.1095 C9.2195,12.1655 9.3005,12.4695 9.3375,12.5845 C9.3745,12.7005 13.9625,24.6055 14.0385,24.7405 C14.1165,24.8725 14.3845,26.8745 14.4005,27.0255 C14.4215,27.1785 15.1075,28.7775 15.2395,28.9305 C14.6305,28.9135 13.6325,29.2615 12.8135,30.0645 C12.0125,30.8455 11.3055,32.5635 11.1425,33.3555 C11.0855,32.9365 8.8395,26.0735 8.7425,25.9025" id="Fill-32" fill="#FFFFFF"></path>
                <path d="M14.5726,37.2941 C14.3736,39.1261 13.9276,40.7131 13.2586,41.8451 C12.8276,42.5791 11.6166,44.0581 11.1956,44.6171 C11.6526,43.7021 12.0066,41.4961 11.9766,39.7811 C11.9576,38.6691 11.6196,36.2091 11.9146,34.5801 C12.2336,32.8341 12.7276,31.8521 13.8986,30.7721 C14.4956,30.2241 15.7176,29.5231 17.4606,29.9961 L18.8716,32.6511 C18.1176,32.5071 17.1186,32.6351 16.4546,33.1451 C15.2016,34.1071 14.7806,35.4021 14.5726,37.2941" id="Fill-33" fill="#FFFFFF"></path>
                <path d="M14.7103,40.901 C15.0533,40.129 15.5043,37.927 15.6303,37.192 C15.7933,36.246 15.9443,34.87 17.0693,33.939 C17.6223,33.483 18.5323,33.423 18.8953,33.53 L20.4883,36.781 C20.6313,37.123 21.1013,37.244 21.4143,37.225 C19.9183,37.711 16.1493,39.504 14.7103,40.901" id="Fill-34" fill="#FFFFFF"></path>
                <path d="M28.2845,30.525 C28.0275,30.926 28.1195,31.311 28.2625,31.58 C28.4245,31.883 29.2685,33.443 29.2685,33.443 C29.5325,34.151 29.7425,34.506 29.9945,34.963 C30.4525,34.963 30.9475,34.951 31.4715,34.963 C30.9135,33.715 29.6385,31.3 29.6385,31.3 L29.5475,29.348 C29.1775,29.573 28.5415,30.127 28.2845,30.525" id="Fill-35" fill="#FFFFFF"></path>
                <path d="M21.4827,20.1832 C22.1117,20.0692 23.5357,20.2002 23.9907,20.4302 L22.5457,12.2442 L21.4827,20.1832 Z" id="Fill-36" fill="#FFFFFF"></path>
                <path d="M9.3372,12.5836 C9.3002,12.4696 9.2202,12.1646 9.0902,12.1096 C8.9452,12.0436 8.6412,11.8736 8.4582,11.8036 C8.3002,11.7396 8.0192,11.4416 7.8862,11.4416 C7.2582,11.4416 6.5332,11.2326 6.2862,11.0596 C6.0202,11.5736 6.2042,11.8666 6.4412,12.1046 C6.6322,12.2936 7.1432,12.4516 7.6382,12.4896 L7.7722,15.3266 C7.9042,15.5386 8.3222,15.6716 8.6862,15.6886 L8.6862,15.7856 L8.1912,16.1466 C8.2072,16.4716 8.6462,25.7306 8.7422,25.9026 C8.8382,26.0726 11.0862,32.9366 11.1432,33.3546 C11.3042,32.5636 12.0112,30.8416 12.8142,30.0626 C13.6322,29.2606 14.6302,28.9136 15.2392,28.9306 C15.1072,28.7766 14.4212,27.1776 14.4002,27.0246 C14.3842,26.8736 14.1162,24.8716 14.0402,24.7396 C13.9642,24.6056 9.3752,12.6996 9.3372,12.5836" id="Fill-37" fill="#FFFFFF"></path>
                <path d="M6.4075,10.3131 C7.7035,10.3161 8.3165,10.8551 8.6205,11.1411 C8.6585,10.7031 8.5905,10.3161 8.1815,9.9851 C7.8445,9.7111 7.2485,9.4681 6.3355,9.4681 C5.7245,9.4681 5.1125,9.6481 4.7305,9.9721 C4.3825,10.2691 4.3235,10.6011 4.3995,11.0991 C4.5135,10.7381 5.3395,10.3091 6.4075,10.3131" id="Fill-38" fill="#FFFFFF"></path>
                <path d="M4.0872,3.5158 C4.0572,4.0118 4.1902,4.5268 4.4182,4.8328 C4.5492,5.0038 4.8582,5.3398 5.0852,5.3258 C5.4092,5.3068 5.7142,4.6868 6.4782,4.7158 C6.9702,4.7348 7.2942,5.4328 7.7142,5.4578 C8.0382,5.4798 8.2072,5.1558 8.5372,5.1208 C8.8172,5.0908 8.9142,5.2308 9.0852,5.4018 C9.2002,5.1358 9.3652,4.9548 9.7912,4.6408 C10.3042,4.2588 12.0562,3.8968 12.8022,3.2308 C13.1742,2.8968 13.2582,2.2808 13.1402,1.8648 C12.8582,2.2618 12.0772,2.6778 11.3162,2.7148 C10.9352,2.7348 10.0192,2.5668 9.6952,2.3948 C9.8582,2.1148 9.9112,1.8008 9.7772,1.4958 C9.5282,1.6848 8.4572,1.7878 8.0382,1.7878 C7.6202,1.7878 6.8012,1.6188 6.1662,1.6528 C4.7772,1.7288 4.1332,2.7148 4.0872,3.5158" id="Fill-39" fill="#FFFFFF"></path>
                <path d="M6.4866,7.841 C9.4976,7.899 10.8556,9.289 10.8956,10.431 C11.0486,10.09 11.0286,9.766 11.0076,9.383 C10.9926,9.08 10.5346,8.221 10.5136,7.937 C10.4956,7.65 10.5716,7.458 10.6296,7.194 C10.4376,7.23 9.7706,7.496 9.4856,7.269 C9.1796,7.023 9.3906,6.412 8.9896,6.261 C8.5906,6.105 7.9626,6.584 7.5596,6.526 C7.1616,6.468 6.8186,5.917 6.4006,5.917 C5.9786,5.917 5.7696,6.43 5.2566,6.546 C4.8586,6.635 4.3796,6.395 4.1436,6.412 C3.8836,6.43 3.7296,6.633 3.6136,6.882 C3.4996,7.128 3.4076,7.23 3.1026,7.308 C2.8606,7.367 2.5126,7.156 2.3406,7.194 C2.4736,7.326 2.5406,7.867 2.4216,8.184 C2.2686,8.584 1.9416,9.004 1.9026,9.503 C1.8706,9.943 2.0156,10.146 2.1326,10.469 C2.0546,8.85 3.8586,7.791 6.4866,7.841" id="Fill-40" fill="#FFFFFF"></path>
                <path d="M4.5901,13.6124 C4.3821,13.6514 3.9421,13.9944 3.7301,14.3504 C3.7891,14.5824 4.0381,15.1194 4.2811,15.2674 C4.3371,15.0194 4.6091,14.6034 4.7441,14.5094 C4.9331,14.3744 5.1221,14.2794 5.2761,14.2064 C5.4271,14.1284 5.4861,14.0524 5.4861,13.8804 C5.4861,13.7084 5.4631,13.6274 5.3861,13.4564 C5.5371,13.4384 5.8191,13.4614 5.9171,13.3254 C6.0101,13.1944 6.0571,13.0214 6.0571,12.8524 C6.0571,12.6784 5.9801,12.6414 5.8101,12.6224 C5.6371,12.6024 5.1381,12.5904 4.8911,12.6104 C4.8911,12.6104 5.2761,12.4124 5.3901,12.3564 C5.5041,12.3004 5.5421,12.1844 5.5611,12.0884 C5.5811,11.9934 5.5771,11.7804 5.5241,11.5194 C4.9521,11.5364 3.9421,12.0504 3.6741,12.2784 L3.8841,12.7974 L3.5051,12.7804 C3.4461,13.0404 3.4861,13.4404 3.5991,13.6704 C3.9421,13.6124 4.3401,13.5934 4.5901,13.6124" id="Fill-41" fill="#FFFFFF"></path>
                <path d="M26.4622,25.1549 C25.8332,24.7479 24.6032,24.1499 24.2332,24.0339 L24.7752,22.6339 C25.2332,22.8639 26.9182,23.8899 27.1762,24.1499 L26.4622,25.1549 Z M23.4892,23.8089 C23.0312,23.4899 21.5192,23.5489 20.8892,23.6929 L20.4322,22.3749 C20.7752,22.1199 21.4332,21.9469 22.0312,21.9469 C22.6332,21.9469 23.2892,22.0909 23.7472,22.3199 L23.4892,23.8089 Z M18.9732,24.7789 C18.7172,23.9159 19.4032,23.0629 19.7192,22.7499 L20.2012,23.8629 C19.8342,24.0629 19.2622,24.4999 18.9732,24.7789 L18.9732,24.7789 Z M20.4622,27.0359 C20.4622,27.0359 21.0882,26.6759 21.6802,26.5479 C22.5522,26.3609 23.5182,26.8839 24.2042,27.4229 L24.0732,27.6299 L23.0902,27.8609 C22.8992,27.6939 22.5382,27.6169 22.1462,27.6369 C21.7982,27.6499 21.5192,27.7799 21.5192,27.7799 L21.7122,28.0939 L21.2612,28.2079 C21.0602,27.9509 20.7452,27.6369 20.4622,27.5499 L20.4622,27.0359 Z M29.2332,25.5499 C29.1632,25.1799 28.2352,24.0719 26.6512,22.8739 C25.4182,21.9349 23.6072,21.0119 22.1172,21.0178709 C19.6032,21.0329 18.5642,22.7619 18.3742,23.6629 C18.2602,24.2089 18.2862,24.7969 18.4012,25.1209 C18.0042,25.4629 17.8502,25.7399 17.7742,26.1309 C17.7212,26.4109 17.7742,26.8159 18.0302,27.0639 C18.0042,26.6919 18.2552,26.2629 18.4602,25.9799 C18.6892,25.6649 19.0682,25.5409 19.4142,25.3309 L19.4722,26.0199 C19.1462,26.2069 18.7422,26.6059 18.7172,26.8159 L18.7422,27.9509 L19.6082,27.4309 L19.7752,27.7799 L19.4602,29.7799 L19.9462,29.6939 L20.8332,30.0569 L19.9762,30.7789 L19.9762,31.0639 C19.9762,31.0639 20.1042,30.8889 20.4052,30.8999 C20.7092,30.9159 21.4872,31.2639 21.4872,31.2639 L21.4592,31.4389 L21.1162,31.4389 L19.9462,31.4389 C19.8892,31.6379 20.0662,31.7909 20.1812,31.8759 C20.3792,31.8189 20.5872,31.7159 20.6992,31.7159 C20.8142,31.7159 21.0772,31.7849 21.3072,31.8139 L21.0312,32.1819 C21.0312,32.1819 20.8902,32.2869 20.6312,32.2369 C20.4882,32.2079 20.3472,32.4069 20.3472,32.5699 C20.3472,32.7439 20.4572,33.1739 20.4572,33.1739 C20.5972,33.8149 21.2562,33.6869 21.3402,33.6799 C21.7572,33.6429 23.1162,33.1539 23.1162,33.1539 L21.8092,34.9859 L22.3802,36.9479 C23.2432,36.5919 25.8222,35.6749 28.6212,35.2149 C28.3162,34.7099 28.2662,34.5059 27.8912,33.7519 L26.4622,30.4649 L26.6602,29.9769 C26.9782,30.0929 27.4622,29.8649 27.7762,29.6079 C28.0902,29.3479 28.4622,28.8949 28.6052,28.6079 C28.4042,28.4939 28.2352,28.5199 28.0612,28.6359 C27.8912,28.7519 27.7582,28.9699 27.5212,28.8639 C27.2592,28.7519 27.3882,28.4689 27.4152,28.2109 C27.4432,27.9559 27.1172,27.9509 26.8912,28.1499 C26.6602,28.3519 26.1752,28.2629 25.8602,27.9509 C25.5482,27.6369 24.0332,26.3779 23.4892,26.0639 C22.7082,25.6159 21.6602,25.5029 20.8892,25.6409 C20.4382,25.7219 20.1172,25.9209 19.9462,25.8339 L19.3802,24.9599 L19.4722,24.9029 C19.6702,24.9889 19.8592,25.1509 20.1172,25.0639 C20.3742,24.9769 21.2012,24.7899 21.9462,24.7789 C23.0902,24.7599 24.4802,25.1769 25.0922,25.4369 C25.1182,26.1779 26.6132,27.1229 27.2912,27.2059 C27.8592,27.2779 28.2062,27.1229 28.5482,26.9209 L27.0912,25.6409 L27.8612,24.6639 C27.8612,24.6639 29.0912,25.8339 29.2642,26.0639 C29.3182,25.9319 29.2642,25.7069 29.2332,25.5499 L29.2332,25.5499 Z" id="Fill-42" fill="#FFFFFF"></path>
                <path d="M26.2669,21.4323 C26.8319,21.6353 28.0279,22.6383 28.3139,22.8703 L31.3429,16.4123 L26.2669,21.4323 Z" id="Fill-43" fill="#FFFFFF"></path>
            </g>
        </g>
    </g>
</svg>